<svg xmlns="http://www.w3.org/2000/svg" width="56" height="55" fill="none" xmlns:v="https://vecta.io/nano"><g fill="#fedfb1"><path d="M9.437 35.792c-5.212-5.063-5.346-13.14-.3-18.042l9.137-8.875c5.046-4.902 13.362-4.771 18.574.292l9.437 9.167c5.212 5.063 5.346 13.14.3 18.042l-9.137 8.875c-5.046 4.901-13.362 4.771-18.574-.292l-9.437-9.167z"/><path d="M12.065 34.333c-4.454-4.05-4.454-10.617 0-14.667l8.065-7.333c4.454-4.05 11.675-4.05 16.129 0l8.065 7.333c4.454 4.05 4.454 10.617 0 14.667l-8.065 7.333c-4.454 4.05-11.675 4.05-16.129 0l-8.065-7.333z"/></g><path d="M31.92 28.61a4.17 4.17 0 0 0 .315-1.61c0-.42-.064-.823-.175-1.196-.379.087-.776.134-1.19.134a5.29 5.29 0 0 1-4.328-2.24c-.523 1.266-1.51 2.284-2.759 2.847-.023.146-.023.303-.023.455a4.24 4.24 0 0 0 1.242 2.999A4.24 4.24 0 0 0 28 31.241c.613 0 1.202-.134 1.733-.373l.472.951c-.957.321-1.697.478-2.205.478-1.412 0-2.759-.554-3.751-1.552-.603-.601-1.052-1.34-1.307-2.152h-.776v-2.654h.636a5.3 5.3 0 0 1 3.67-4.012 5.3 5.3 0 0 1 5.272 1.328c.735.732 1.237 1.666 1.441 2.683h.648v2.654h-.035L31.722 30.5l-3.092-.35v-.974h2.818l.473-.566zm-5.513-1.744c.175 0 .344.07.467.198s.192.292.192.467-.069.343-.192.467-.292.193-.467.193a.66.66 0 0 1-.665-.659c0-.367.297-.665.665-.665zm3.179 0a.66.66 0 0 1 .659.665c0 .367-.292.659-.659.659a.66.66 0 0 1-.665-.659c0-.176.07-.345.195-.47s.294-.195.47-.195z" fill="#01244c"/></svg>