<svg xmlns="http://www.w3.org/2000/svg" width="56" height="55" fill="none" xmlns:v="https://vecta.io/nano"><g fill="#fedfb1"><path d="M9.437 35.792c-5.212-5.063-5.346-13.14-.3-18.042l9.137-8.875c5.046-4.902 13.362-4.771 18.574.292l9.437 9.167c5.212 5.063 5.346 13.14.3 18.042l-9.137 8.875c-5.046 4.901-13.362 4.771-18.574-.292l-9.437-9.167z"/><path d="M12.183 34.333c-4.454-4.05-4.454-10.617 0-14.667l8.064-7.333c4.454-4.05 11.675-4.05 16.129 0l8.065 7.333c4.454 4.05 4.454 10.617 0 14.667l-8.065 7.333c-4.454 4.05-11.675 4.05-16.129 0l-8.064-7.333z"/></g><path d="M22.993 26.417a.59.59 0 0 1-.428-.168c-.115-.112-.173-.25-.173-.415v-3.5c0-.165.058-.304.173-.416a.59.59 0 0 1 .428-.167h3.603a.59.59 0 0 1 .428.167c.115.112.172.251.172.416v3.5c0 .165-.058.304-.172.415a.59.59 0 0 1-.428.168h-3.603zm.601-3.5v2.333-2.333zm5.405 3.5a.59.59 0 0 1-.428-.168c-.115-.112-.173-.25-.173-.415v-3.5c0-.165.058-.304.173-.416a.59.59 0 0 1 .428-.167h3.603a.59.59 0 0 1 .428.167c.115.112.173.251.173.416v3.5c0 .165-.058.304-.173.415a.59.59 0 0 1-.428.168h-3.603zm.601-3.5v2.333-2.333zm-6.606 9.333a.59.59 0 0 1-.428-.168c-.115-.112-.173-.25-.173-.415v-3.5c0-.165.058-.304.173-.416a.59.59 0 0 1 .428-.167h3.603a.59.59 0 0 1 .428.167c.115.112.172.251.172.416v3.5c0 .165-.058.304-.172.415a.59.59 0 0 1-.428.168h-3.603zm.601-3.5v2.333-2.333zm7.207 3.5a.59.59 0 0 1-.428-.168c-.115-.112-.173-.25-.173-.415V30.5h-1.216c-.17 0-.31-.056-.42-.168s-.165-.25-.165-.415.058-.304.173-.415a.59.59 0 0 1 .428-.168h1.201v-1.181c0-.165.058-.301.173-.408s.258-.16.428-.16a.59.59 0 0 1 .428.167c.115.112.173.251.173.416v1.167h1.216c.17 0 .31.056.42.168s.165.25.165.415-.058.304-.173.415a.59.59 0 0 1-.428.168H31.4v1.181c0 .165-.058.301-.173.408s-.257.16-.428.16zm-1.201-9.333v2.333h2.402v-2.333h-2.402zm-6.006 0v2.333h2.402v-2.333h-2.402zm0 5.833v2.333h2.402V28.75h-2.402z" fill="#01244c"/></svg>