<svg xmlns="http://www.w3.org/2000/svg" width="166" height="46" fill="none" xmlns:v="https://vecta.io/nano"><path d="M23.787 6.748c.419 0 .76-.324.76-.723V.781c0-.399-.341-.723-.76-.723s-.761.324-.761.723v5.244c0 .399.341.723.761.723zm-12.784 4.351c.144.137.335.212.538.212s.394-.075.538-.212a.7.7 0 0 0 0-1.023L8.18 6.368a.79.79 0 0 0-1.075 0 .7.7 0 0 0 0 1.023l3.898 3.708zM7.034 22.05c0-.399-.341-.723-.76-.723H.76c-.419 0-.76.325-.76.723s.341.723.76.723h5.513c.419 0 .76-.325.76-.723zm3.499 11.137l-3.898 3.708a.7.7 0 0 0 0 1.023c.144.137.335.212.538.212s.394-.075.538-.212l3.898-3.708a.7.7 0 0 0 0-1.023.79.79 0 0 0-1.075 0zm25.373.448a.79.79 0 0 0-1.075 0 .7.7 0 0 0 0 1.023l3.898 3.708c.144.137.335.212.538.212s.394-.075.538-.212a.7.7 0 0 0 0-1.023l-3.899-3.708zM46.149 21.96h-5.513c-.419 0-.761.324-.761.723s.342.723.761.723h5.513c.419 0 .76-.324.76-.723s-.341-.723-.76-.723zM35.838 11.758c.203 0 .394-.075.538-.212l3.898-3.708a.7.7 0 0 0 0-1.023.79.79 0 0 0-1.075 0l-3.898 3.708a.7.7 0 0 0 0 1.023c.144.137.334.212.537.212zM23.811 13.89c-.078 0-1.928.011-3.853 1.016-1.787.933-3.979 2.917-4.272 7.073-.028.398.29.743.708.77l.052.002c.398 0 .731-.296.758-.675.197-2.794 1.357-4.773 3.448-5.881 1.575-.834 3.148-.858 3.162-.858.418-.001.759-.325.759-.723s-.341-.723-.761-.723z" fill="#e78200"/><g fill="#01244c"><path d="M27.918 41.014h-8.405c-.12 0-.218-.093-.218-.207V38.78c0-.114.098-.207.218-.207h8.405c.12 0 .218.093.218.207v2.027c0 .114-.098.207-.218.207zm-1.826 1.446v.286c0 .59-.505 1.07-1.125 1.07h-2.93c-.62 0-1.125-.48-1.125-1.07v-.286h5.18zm1.826-5.334h-8.405c-.959 0-1.738.742-1.738 1.654v2.027c0 .873.714 1.59 1.616 1.65v.29c0 1.388 1.187 2.516 2.646 2.516h2.93c1.459 0 2.646-1.129 2.646-2.516v-.286h.305c.959 0 1.738-.742 1.738-1.654V38.78c0-.912-.78-1.654-1.738-1.654zm3.983-8.932a11.27 11.27 0 0 0-2.504 3.884l-1.162 3.033c-.037.096-.134.161-.242.161H19.48c-.107 0-.204-.064-.241-.16l-1.283-3.29c-.546-1.4-1.34-2.648-2.361-3.709-1.798-1.869-2.788-4.28-2.788-6.788 0-5.621 4.925-10.194 10.979-10.194s10.979 4.573 10.979 10.194c0 2.548-1.018 4.987-2.865 6.868zM23.787 9.686c-6.892 0-12.5 5.222-12.5 11.641 0 2.871 1.132 5.628 3.187 7.764a9.74 9.74 0 0 1 2.057 3.235l1.283 3.289c.257.66.927 1.104 1.667 1.104h8.513c.745 0 1.416-.447 1.671-1.113l1.161-3.033c.486-1.269 1.221-2.41 2.186-3.391 2.112-2.15 3.275-4.94 3.275-7.855 0-6.419-5.607-11.641-12.499-11.641zm32.841 20.565a38.3 38.3 0 0 1-1.484-.032l-1.581-.097-1.548-.161a12.01 12.01 0 0 1-1.419-.258V8.026a11.81 11.81 0 0 1 1.419-.258l1.548-.161 1.581-.097 1.452-.032a21.26 21.26 0 0 1 3.613.29c1.14.194 2.118.527 2.935 1 .839.452 1.495 1.054 1.968 1.806s.71 1.677.71 2.774c0 1.226-.29 2.236-.871 3.032-.581.774-1.355 1.355-2.323 1.742 1.312.387 2.355 1 3.129 1.839s1.161 2.021 1.161 3.548c0 2.236-.828 3.925-2.484 5.064-1.634 1.118-4.236 1.677-7.806 1.677zm-2.935-10.613v7.871l.839.064.968.065h1.322c.925 0 1.796-.054 2.613-.161.839-.129 1.57-.344 2.194-.645s1.118-.72 1.484-1.258c.387-.538.581-1.215.581-2.032 0-.731-.14-1.344-.419-1.839-.279-.516-.688-.925-1.226-1.226-.516-.301-1.14-.516-1.871-.645a14.17 14.17 0 0 0-2.452-.194h-4.032zm0-2.516h3.29c.774 0 1.505-.054 2.194-.161s1.279-.301 1.774-.581c.516-.279.914-.645 1.194-1.097.301-.452.452-1.021.452-1.71 0-.645-.151-1.183-.452-1.613-.301-.452-.72-.806-1.258-1.065-.516-.28-1.129-.484-1.839-.613s-1.462-.194-2.258-.194l-1.871.032-1.226.097v6.903zM74.13 30.057h-3V13.284h3v16.774zm-1.516-19.806c-.538 0-1-.172-1.387-.516-.366-.366-.548-.849-.548-1.452s.183-1.075.548-1.419a1.95 1.95 0 0 1 1.387-.548 1.84 1.84 0 0 1 1.355.548c.387.344.581.817.581 1.419s-.194 1.086-.581 1.452c-.366.344-.817.516-1.355.516zm9.481 3.032h6.355V15.8h-6.355v7.742c0 .839.064 1.538.194 2.097.129.538.323.968.581 1.29a2.14 2.14 0 0 0 .968.645c.387.129.839.194 1.355.194.903 0 1.624-.097 2.161-.29l1.161-.452.581 2.484c-.301.151-.828.333-1.581.548-.753.237-1.613.355-2.581.355-1.14 0-2.086-.14-2.839-.419-.731-.301-1.323-.742-1.774-1.323s-.774-1.29-.968-2.129c-.172-.86-.258-1.849-.258-2.968V8.606l3-.516v5.193zm23.817 14.064v2.71H92.461V7.703h3.129v19.645h10.322zm8.76.548l1.871-.032a9.36 9.36 0 0 0 1.387-.194v-5c-.215-.108-.57-.194-1.065-.258-.473-.086-1.054-.129-1.742-.129a11.74 11.74 0 0 0-1.451.097 4.34 4.34 0 0 0-1.387.419 2.79 2.79 0 0 0-1.033.839c-.279.344-.419.806-.419 1.387 0 1.075.344 1.828 1.032 2.258.688.409 1.624.613 2.807.613zm-.258-15.032c1.204 0 2.215.161 3.032.484.838.301 1.505.742 2 1.322.516.559.881 1.236 1.096 2.032.215.774.323 1.634.323 2.581v10.484l-1.097.194-1.548.194-1.903.161-2 .097a11.05 11.05 0 0 1-2.613-.29c-.796-.194-1.484-.495-2.065-.903-.58-.43-1.032-.989-1.354-1.677s-.484-1.516-.484-2.484c0-.925.183-1.72.548-2.387a4.63 4.63 0 0 1 1.549-1.613c.645-.409 1.397-.71 2.258-.903a12.31 12.31 0 0 1 2.709-.29 7.09 7.09 0 0 1 .936.064 5.72 5.72 0 0 1 .903.129l.774.129.452.097v-.839a6.5 6.5 0 0 0-.162-1.452 3.21 3.21 0 0 0-.58-1.29c-.28-.387-.667-.688-1.162-.903-.473-.236-1.096-.355-1.871-.355-.989 0-1.86.075-2.612.226-.732.129-1.28.269-1.645.419l-.355-2.484c.387-.172 1.032-.333 1.935-.484.903-.172 1.882-.258 2.936-.258zm14.433 1.161c.366-.237.914-.484 1.646-.742.752-.258 1.612-.387 2.58-.387 1.204 0 2.269.215 3.194.645.946.43 1.741 1.032 2.387 1.806s1.129 1.699 1.451 2.774c.344 1.075.516 2.258.516 3.548 0 1.355-.204 2.581-.613 3.677-.387 1.075-.946 1.989-1.677 2.742s-1.613 1.333-2.645 1.742-2.194.613-3.484.613c-1.398 0-2.634-.097-3.709-.29l-2.646-.581V5.542l3-.516v9zm0 13.419c.301.086.721.172 1.258.258.56.064 1.248.097 2.065.097 1.613 0 2.903-.527 3.871-1.581.967-1.075 1.451-2.591 1.451-4.548 0-.86-.086-1.667-.258-2.419s-.451-1.398-.838-1.935a3.85 3.85 0 0 0-1.517-1.29c-.602-.323-1.333-.484-2.193-.484-.817 0-1.57.14-2.258.419s-1.215.57-1.581.871v10.613zm19.899.452c1.226 0 2.129-.161 2.709-.484.603-.323.904-.839.904-1.548 0-.731-.291-1.312-.871-1.742s-1.538-.914-2.871-1.452l-1.871-.774a7.03 7.03 0 0 1-1.516-.968c-.43-.366-.774-.806-1.032-1.322s-.388-1.151-.388-1.903c0-1.484.549-2.656 1.646-3.516 1.096-.882 2.591-1.323 4.483-1.323.473 0 .947.032 1.42.097a11.45 11.45 0 0 1 1.322.194 9.06 9.06 0 0 1 1.065.226l.742.226-.549 2.581c-.322-.172-.828-.344-1.516-.516-.688-.194-1.516-.29-2.484-.29-.838 0-1.57.172-2.193.516a1.62 1.62 0 0 0-.936 1.548c0 .366.065.688.194.968a2.68 2.68 0 0 0 .645.774 6.47 6.47 0 0 0 1.097.613l1.548.613 2.129.903c.624.28 1.151.613 1.581 1 .451.387.795.86 1.032 1.419.237.538.355 1.204.355 2 0 1.548-.581 2.72-1.742 3.516-1.14.796-2.774 1.194-4.903 1.194-1.484 0-2.645-.129-3.484-.387l-1.71-.548.549-2.581 1.645.581c.753.258 1.753.387 3 .387z"/><path d="M50.386 43.253c.556 0 .989-.1 1.298-.299.309-.206.463-.536.463-.989 0-.261-.051-.477-.154-.649a1.28 1.28 0 0 0-.391-.443c-.165-.124-.354-.227-.566-.309l-.67-.278a7.94 7.94 0 0 1-.793-.361c-.233-.124-.433-.261-.597-.412-.165-.158-.292-.337-.381-.536-.082-.199-.124-.433-.124-.7 0-.611.203-1.075.608-1.39s.968-.474 1.689-.474c.192 0 .381.014.567.041s.357.065.515.113c.165.041.312.089.443.144a1.73 1.73 0 0 1 .34.175l-.247.587c-.199-.137-.443-.247-.731-.33-.282-.082-.587-.124-.917-.124-.227 0-.436.024-.628.072-.185.041-.347.113-.484.216a1.07 1.07 0 0 0-.33.371 1.21 1.21 0 0 0-.113.546c0 .22.041.405.124.556a1.23 1.23 0 0 0 .34.391c.151.11.326.209.525.299l.649.278.793.35a2.84 2.84 0 0 1 .659.412c.185.158.333.35.443.577s.165.505.165.834c0 .645-.227 1.13-.68 1.452-.446.323-1.054.484-1.823.484-.275 0-.525-.017-.752-.051a5.54 5.54 0 0 1-.608-.124l-.453-.165-.288-.144.227-.608a3.25 3.25 0 0 0 .278.144 4.26 4.26 0 0 0 .412.165 4.43 4.43 0 0 0 .536.124c.199.034.419.052.659.052zm9.523-2.204c0 .419-.062.8-.185 1.143-.117.343-.285.635-.505.876-.213.24-.467.429-.762.566-.295.13-.621.196-.978.196s-.683-.065-.979-.196c-.295-.137-.553-.326-.773-.566-.213-.24-.381-.532-.505-.876-.117-.343-.175-.724-.175-1.143s.058-.8.175-1.143c.124-.343.292-.635.505-.876a2.23 2.23 0 0 1 .773-.566c.295-.137.621-.206.979-.206s.683.069.978.206a2.13 2.13 0 0 1 .762.566c.22.24.388.532.505.876.124.343.185.724.185 1.143zm-.711 0c0-.666-.154-1.195-.463-1.586-.309-.398-.728-.597-1.257-.597s-.948.199-1.257.597c-.309.391-.463.92-.463 1.586s.154 1.195.463 1.586.728.587 1.257.587.948-.196 1.257-.587.463-.92.463-1.586zm5.356-5.335c.288 0 .522.024.7.072.185.041.306.079.361.113l-.134.577c-.076-.034-.189-.069-.34-.103-.144-.041-.33-.062-.556-.062-.474 0-.814.12-1.02.36-.199.24-.299.625-.299 1.154v.556h2.143v.566h-2.143v4.759h-.669v-5.902c0-.694.158-1.215.474-1.566.323-.35.817-.525 1.483-.525zm3.78 2.668h2.122v.566h-2.122v2.833c0 .302.024.549.072.742.055.185.13.33.227.433a.7.7 0 0 0 .35.206c.137.034.288.051.453.051.282 0 .508-.031.68-.093a3.34 3.34 0 0 0 .402-.185l.165.556c-.096.062-.264.134-.505.216-.24.076-.501.113-.783.113-.33 0-.608-.041-.834-.124-.22-.089-.398-.22-.536-.391-.13-.178-.223-.398-.278-.659s-.082-.57-.082-.927v-4.903l.669-.124v1.689zm8.021 0l.237 1.102.33 1.185.381 1.185.412 1.102.371-.948.391-1.184.36-1.257.288-1.184h.659l-.814 2.863-.958 2.462h-.628l-.33-.803-.35-.958-.35-1.071-.319-1.154-.33 1.154-.35 1.071-.35.958-.319.803h-.639l-.968-2.462-.803-2.863h.711l.278 1.185.371 1.257.391 1.174.381.948.391-1.102.381-1.184.33-1.174.268-1.102h.577zm7.472 4.841l.68-.021.505-.072v-1.875c-.076-.034-.196-.069-.361-.103-.165-.041-.391-.062-.68-.062-.165 0-.337.014-.515.041-.179.021-.343.072-.494.154a.98.98 0 0 0-.371.319c-.096.137-.144.319-.144.546 0 .199.031.367.093.505a.87.87 0 0 0 .278.33c.124.082.268.144.433.185.172.034.364.051.577.051zm-.062-4.965c.35 0 .645.051.886.154.247.096.446.233.597.412.151.172.261.378.33.618s.103.501.103.783v3.358a3.91 3.91 0 0 1-.299.072l-.453.072c-.172.028-.364.048-.577.062a6.42 6.42 0 0 1-.639.031c-.282 0-.543-.031-.783-.093-.234-.062-.44-.158-.618-.288a1.52 1.52 0 0 1-.412-.515c-.096-.213-.144-.47-.144-.772 0-.288.055-.536.165-.742a1.36 1.36 0 0 1 .463-.505 2.02 2.02 0 0 1 .711-.299 4.08 4.08 0 0 1 .896-.093c.096 0 .196.007.299.021a2.11 2.11 0 0 1 .309.041c.103.014.189.031.257.052.076.014.127.027.155.041v-.33c0-.185-.014-.364-.041-.536a1.11 1.11 0 0 0-.185-.474c-.089-.144-.22-.258-.391-.34-.165-.089-.385-.134-.659-.134-.391 0-.683.027-.876.082l-.422.134-.093-.587c.117-.055.295-.106.536-.154.247-.048.542-.072.886-.072zm6.672.021a3.52 3.52 0 0 1 .618.052 1.92 1.92 0 0 1 .412.103l-.134.577a1.4 1.4 0 0 0-.34-.082c-.165-.034-.384-.052-.659-.052a3.22 3.22 0 0 0-.7.062c-.172.041-.285.075-.34.103v4.666h-.669v-5.078c.172-.075.409-.151.711-.227.302-.082.669-.124 1.102-.124zm2.956 2.76c0-.467.065-.872.196-1.215a2.8 2.8 0 0 1 .525-.876 2.07 2.07 0 0 1 .742-.515 2.24 2.24 0 0 1 .865-.175c.652 0 1.171.213 1.555.639.391.426.587 1.081.587 1.967a1.32 1.32 0 0 1-.01.165 1.09 1.09 0 0 1-.01.154h-3.739c.021.652.182 1.154.484 1.504s.783.525 1.442.525c.364 0 .652-.034.865-.103l.463-.175.124.577c-.096.055-.278.12-.546.196-.261.076-.57.113-.927.113-.467 0-.865-.069-1.195-.206s-.601-.33-.814-.577-.367-.539-.463-.876c-.096-.343-.144-.717-.144-1.123zm3.78-.422c-.014-.556-.144-.989-.391-1.298s-.597-.463-1.051-.463a1.43 1.43 0 0 0-.649.144c-.185.096-.35.227-.494.391-.137.158-.247.343-.33.556-.075.213-.12.436-.134.669h3.049zm8.089 2.616c.385 0 .701-.062.948-.185.254-.13.381-.347.381-.649 0-.144-.024-.268-.072-.371a.68.68 0 0 0-.216-.278c-.103-.082-.241-.161-.412-.237l-.619-.268-.566-.247c-.179-.089-.336-.189-.474-.299a1.36 1.36 0 0 1-.329-.412c-.083-.158-.124-.35-.124-.577 0-.433.161-.783.484-1.051.33-.268.779-.402 1.349-.402.364 0 .663.031.897.093.24.062.408.117.504.165l-.154.597c-.083-.041-.223-.096-.423-.165-.192-.069-.477-.103-.855-.103-.151 0-.295.017-.432.051a.99.99 0 0 0-.35.144c-.103.062-.186.144-.248.247a.66.66 0 0 0-.092.361c0 .144.027.268.082.371a.9.9 0 0 0 .237.278 2.56 2.56 0 0 0 .391.216l.536.227.587.258a1.95 1.95 0 0 1 .505.309 1.35 1.35 0 0 1 .35.433c.089.165.134.374.134.628 0 .481-.182.845-.546 1.092-.357.247-.848.371-1.473.371-.467 0-.824-.041-1.071-.124l-.494-.175.175-.608c.02.014.065.038.134.072l.278.103a3.69 3.69 0 0 0 .412.093c.164.028.353.041.566.041zm9.092-2.184c0 .419-.061.8-.185 1.143-.117.343-.285.635-.505.876-.213.24-.467.429-.762.566a2.39 2.39 0 0 1-.978.196c-.357 0-.684-.065-.979-.196a2.41 2.41 0 0 1-.772-.566 2.65 2.65 0 0 1-.505-.876c-.117-.343-.175-.724-.175-1.143s.058-.8.175-1.143c.123-.343.292-.635.505-.876.219-.247.477-.436.772-.566.295-.137.622-.206.979-.206a2.29 2.29 0 0 1 .978.206c.295.13.549.319.762.566.22.24.388.532.505.876.124.343.185.724.185 1.143zm-.71 0c0-.666-.155-1.195-.464-1.586-.309-.398-.728-.597-1.256-.597s-.948.199-1.257.597c-.309.391-.464.92-.464 1.586s.155 1.195.464 1.586.728.587 1.257.587.947-.196 1.256-.587.464-.92.464-1.586zm4.748 2.75a2.18 2.18 0 0 1-.597-.093 1.08 1.08 0 0 1-.422-.227 1.14 1.14 0 0 1-.258-.412 2.12 2.12 0 0 1-.082-.639v-6.592l.669-.124v6.695c0 .165.014.299.041.402.035.096.083.175.145.237.061.055.14.096.237.124a3.33 3.33 0 0 0 .36.072l-.093.556zm6.602-.278l-.804.185a6.29 6.29 0 0 1-1.236.103c-.398 0-.731-.058-.999-.175s-.484-.282-.649-.494-.285-.47-.36-.773a4.49 4.49 0 0 1-.103-.999v-2.987h.669v2.771c0 .378.028.697.082.958s.145.474.268.639c.124.158.282.275.474.35.199.069.44.103.721.103.316 0 .591-.017.824-.051s.381-.065.443-.093v-4.676h.67v5.14zm3.639-5.14h2.122v.566h-2.122v2.833c0 .302.024.549.072.742.055.185.13.33.227.433a.7.7 0 0 0 .35.206 1.86 1.86 0 0 0 .453.051c.282 0 .508-.031.68-.093l.402-.185.164.556c-.096.062-.264.134-.504.216-.241.076-.502.113-.783.113-.33 0-.608-.041-.835-.124-.219-.089-.398-.22-.535-.391-.131-.178-.223-.398-.278-.659s-.083-.57-.083-.927v-4.903l.67-.124v1.689zm5.26 5.325h-.669v-5.325h.669v5.325zm.155-6.932c0 .158-.048.285-.144.381a.5.5 0 0 1-.351.134c-.137 0-.254-.045-.35-.134-.096-.096-.144-.223-.144-.381s.048-.282.144-.371c.096-.096.213-.144.35-.144a.48.48 0 0 1 .351.144c.096.089.144.213.144.371zm7.398 4.275c0 .419-.061.8-.185 1.143-.117.343-.285.635-.505.876-.213.24-.467.429-.762.566a2.39 2.39 0 0 1-.978.196c-.357 0-.684-.065-.979-.196a2.41 2.41 0 0 1-.772-.566 2.65 2.65 0 0 1-.505-.876c-.117-.343-.175-.724-.175-1.143s.058-.8.175-1.143c.123-.343.292-.635.505-.876.219-.247.477-.436.772-.566.295-.137.622-.206.979-.206a2.29 2.29 0 0 1 .978.206c.295.13.549.319.762.566.22.24.388.532.505.876.124.343.185.724.185 1.143zm-.71 0c0-.666-.155-1.195-.464-1.586-.309-.398-.728-.597-1.256-.597s-.948.199-1.257.597c-.309.391-.464.92-.464 1.586s.155 1.195.464 1.586.728.587 1.257.587.947-.196 1.256-.587.464-.92.464-1.586zm3.399-2.482l.803-.185c.337-.069.749-.103 1.236-.103.406 0 .742.058 1.01.175a1.5 1.5 0 0 1 .649.505 1.95 1.95 0 0 1 .35.773c.069.302.103.635.103.999v2.977h-.67v-2.76c0-.378-.027-.697-.082-.958-.048-.261-.134-.474-.257-.639a.94.94 0 0 0-.474-.35c-.193-.075-.436-.113-.732-.113a5.76 5.76 0 0 0-.824.052c-.226.034-.374.065-.442.093v4.676h-.67v-5.14zm8.192 4.666c.385 0 .7-.062.948-.185.254-.13.381-.347.381-.649 0-.144-.024-.268-.072-.371-.042-.103-.114-.196-.217-.278s-.24-.161-.412-.237l-.618-.268-.566-.247c-.179-.089-.337-.189-.474-.299a1.38 1.38 0 0 1-.33-.412 1.24 1.24 0 0 1-.123-.577c0-.433.161-.783.484-1.051.33-.268.779-.402 1.349-.402.364 0 .663.031.896.093.241.062.409.117.505.165l-.154.597c-.083-.041-.224-.096-.423-.165-.192-.069-.477-.103-.855-.103-.151 0-.295.017-.432.051a.99.99 0 0 0-.35.144c-.103.062-.186.144-.248.247a.66.66 0 0 0-.092.361c0 .144.027.268.082.371a.9.9 0 0 0 .237.278 2.56 2.56 0 0 0 .391.216l.536.227.587.258a1.95 1.95 0 0 1 .505.309 1.35 1.35 0 0 1 .35.433c.089.165.134.374.134.628 0 .481-.182.845-.546 1.092-.357.247-.848.371-1.473.371-.467 0-.824-.041-1.071-.124l-.495-.175.176-.608a1.47 1.47 0 0 0 .133.072l.279.103a3.69 3.69 0 0 0 .412.093c.164.028.353.041.566.041z"/></g></svg>