<svg width="166" height="46" viewBox="0 0 166 46" fill="none" xmlns="http://www.w3.org/2000/svg">
<path d="M23.7874 6.74777C24.2064 6.74777 24.5474 6.42349 24.5474 6.02451V0.780668C24.5474 0.381693 24.2064 0.0574069 23.7874 0.0574069C23.3675 0.0574069 23.0266 0.381693 23.0266 0.780668V6.02451C23.0266 6.42349 23.3675 6.74777 23.7874 6.74777Z" fill="#E78200"/>
<path d="M11.0033 11.0986C11.1469 11.2352 11.3379 11.3105 11.541 11.3105C11.744 11.3105 11.935 11.2352 12.0786 11.0986C12.3751 10.8166 12.3751 10.3576 12.0786 10.0756L8.18024 6.36761C7.88376 6.08597 7.40138 6.08597 7.10494 6.36761C6.80849 6.64962 6.80849 7.10862 7.10494 7.39063L11.0033 11.0986Z" fill="#E78200"/>
<path d="M7.03386 22.05C7.03386 21.6512 6.69274 21.3266 6.27349 21.3266H0.760367C0.341115 21.3266 0 21.6512 0 22.05C0 22.4488 0.341115 22.7734 0.760367 22.7734H6.27349C6.69274 22.7734 7.03386 22.4488 7.03386 22.05Z" fill="#E78200"/>
<path d="M10.5328 33.1868L6.63438 36.8948C6.33797 37.1768 6.33797 37.6358 6.63442 37.9178C6.77807 38.0544 6.96901 38.1293 7.17204 38.1293C7.3751 38.1293 7.56604 38.0544 7.70973 37.9178L11.6081 34.2098C11.9045 33.9278 11.9045 33.4688 11.6081 33.1868C11.3116 32.9048 10.8293 32.9048 10.5328 33.1868Z" fill="#E78200"/>
<path d="M35.9055 33.6345C35.6094 33.3524 35.1268 33.3524 34.8303 33.6345C34.5338 33.9165 34.5338 34.3751 34.8303 34.6571L38.7287 38.3651C38.8723 38.5017 39.0634 38.577 39.2665 38.577C39.4695 38.577 39.6602 38.5017 39.8042 38.3651C40.1003 38.0831 40.1003 37.6244 39.8042 37.3424L35.9055 33.6345Z" fill="#E78200"/>
<path d="M46.1488 21.9596H40.6357C40.2165 21.9596 39.875 22.284 39.875 22.6827C39.875 23.0814 40.2165 23.4058 40.6357 23.4058H46.1488C46.568 23.4058 46.909 23.0814 46.909 22.6827C46.909 22.284 46.568 21.9596 46.1488 21.9596Z" fill="#E78200"/>
<path d="M35.8383 11.7578C36.0414 11.7578 36.2325 11.6828 36.3761 11.5462L40.2744 7.83789C40.5709 7.55588 40.5709 7.09725 40.2744 6.81524C39.9779 6.53323 39.4958 6.53323 39.1993 6.81524L35.3009 10.5232C35.0044 10.8052 35.0044 11.2642 35.3009 11.5462C35.4445 11.6828 35.6352 11.7578 35.8383 11.7578Z" fill="#E78200"/>
<path d="M23.8108 13.8904C23.7328 13.8904 21.8829 13.9018 19.958 14.9061C18.1707 15.8388 15.9786 17.8228 15.6855 21.9791C15.6575 22.3768 15.975 22.7223 16.393 22.7491C16.4104 22.7502 16.4276 22.7506 16.4448 22.7506C16.8431 22.7506 17.1762 22.4543 17.2029 22.0757C17.3999 19.2813 18.56 17.3024 20.6506 16.1946C22.2253 15.3603 23.7981 15.3368 23.8124 15.3368C24.2309 15.3361 24.5714 15.0118 24.5714 14.6134C24.5714 14.2147 24.2301 13.8904 23.8108 13.8904Z" fill="#E78200"/>
<path d="M27.9181 41.014H19.5134C19.3934 41.014 19.2958 40.9211 19.2958 40.8069V38.7796C19.2958 38.6658 19.3934 38.5729 19.5134 38.5729H27.9181C28.0382 38.5729 28.1359 38.6658 28.1359 38.7796V40.8069C28.1359 40.9211 28.0382 41.014 27.9181 41.014ZM26.0921 42.4604V42.7469C26.0921 43.3366 25.5875 43.8169 24.9671 43.8169H22.0366C21.4162 43.8169 20.9117 43.3366 20.9117 42.7469V42.4604H26.0921ZM27.9181 37.1261H19.5134C18.5549 37.1261 17.7751 37.8679 17.7751 38.7796V40.8069C17.7751 41.6794 18.4894 42.3965 19.391 42.4564V42.7469C19.391 44.1345 20.5777 45.2633 22.0366 45.2633H24.9671C26.426 45.2633 27.6131 44.1345 27.6131 42.7469V42.4604H27.9181C28.8767 42.4604 29.6565 41.7187 29.6565 40.8069V38.7796C29.6565 37.8679 28.8767 37.1261 27.9181 37.1261Z" fill="#01244C"/>
<path d="M31.9006 28.1943C30.7957 29.3191 29.9534 30.6256 29.3971 32.0782L28.2354 35.1116C28.1988 35.2078 28.1015 35.2728 27.9938 35.2728H19.4812C19.374 35.2728 19.277 35.2086 19.2399 35.1131L17.9571 31.8234C17.4115 30.4236 16.6172 29.1759 15.5962 28.1146C13.7985 26.2456 12.8084 23.8349 12.8084 21.3266C12.8084 15.7059 17.7334 11.1327 23.7873 11.1327C29.841 11.1327 34.7659 15.7059 34.7659 21.3266C34.7659 23.8746 33.7482 26.3135 31.9006 28.1943ZM23.7873 9.68598C16.8949 9.68598 11.2877 14.9079 11.2877 21.3266C11.2877 24.1974 12.4193 26.9547 14.4742 29.091C15.3621 30.0142 16.0542 31.1025 16.5312 32.3261L17.8138 35.6154C18.0707 36.2757 18.7408 36.7192 19.4812 36.7192H27.9938C28.7385 36.7192 29.4098 36.272 29.6646 35.6066L30.8258 32.5732C31.3119 31.3045 32.0473 30.1636 33.0117 29.1821C35.1234 27.0325 36.2865 24.2425 36.2865 21.3266C36.2865 14.9079 30.6795 9.68598 23.7873 9.68598Z" fill="#01244C"/>
<path d="M56.6278 30.2509C56.1762 30.2509 55.6815 30.2402 55.1439 30.2187C54.6278 30.1972 54.1009 30.1649 53.5633 30.1219C53.0472 30.0789 52.5311 30.0251 52.015 29.9606C51.4989 29.8961 51.0258 29.8101 50.5957 29.7026V8.02572C51.0258 7.9182 51.4989 7.83218 52.015 7.76766C52.5311 7.70315 53.0472 7.64939 53.5633 7.60638C54.1009 7.56337 54.6278 7.53111 55.1439 7.5096C55.66 7.4881 56.1439 7.47735 56.5955 7.47735C57.8858 7.47735 59.0901 7.57412 60.2083 7.76766C61.3481 7.96121 62.3265 8.29453 63.1437 8.76764C63.9824 9.21924 64.6383 9.82137 65.1114 10.574C65.5845 11.3267 65.8211 12.2514 65.8211 13.3482C65.8211 14.5739 65.5307 15.5847 64.9501 16.3803C64.3695 17.1545 63.5953 17.7351 62.6276 18.1222C63.9394 18.5093 64.9824 19.1222 65.7565 19.9609C66.5307 20.7996 66.9178 21.9823 66.9178 23.5092C66.9178 25.7457 66.0899 27.4338 64.434 28.5736C62.7996 29.6918 60.1976 30.2509 56.6278 30.2509ZM53.6923 19.6383V27.5091C53.9289 27.5306 54.2085 27.5521 54.531 27.5736C54.8106 27.5951 55.1332 27.6166 55.4988 27.6381C55.8858 27.6381 56.3267 27.6381 56.8213 27.6381C57.746 27.6381 58.617 27.5843 59.4341 27.4768C60.2728 27.3478 61.004 27.1327 61.6276 26.8317C62.2513 26.5306 62.7459 26.1113 63.1115 25.5736C63.4985 25.036 63.6921 24.3586 63.6921 23.5414C63.6921 22.8103 63.5523 22.1974 63.2727 21.7028C62.9932 21.1867 62.5846 20.7781 62.047 20.477C61.5309 20.1759 60.9072 19.9609 60.176 19.8319C59.4449 19.7028 58.6277 19.6383 57.7245 19.6383H53.6923ZM53.6923 17.1223H56.9826C57.7568 17.1223 58.4879 17.0685 59.1761 16.961C59.8642 16.8534 60.4556 16.6599 60.9502 16.3803C61.4663 16.1008 61.8642 15.7352 62.1437 15.2836C62.4448 14.832 62.5953 14.2621 62.5953 13.574C62.5953 12.9288 62.4448 12.3912 62.1437 11.9611C61.8427 11.5095 61.4233 11.1547 60.8857 10.8966C60.3696 10.617 59.7567 10.4128 59.047 10.2837C58.3374 10.1547 57.5847 10.0902 56.789 10.0902C55.9934 10.0902 55.3697 10.1009 54.9181 10.1224C54.4665 10.1439 54.0579 10.1762 53.6923 10.2192V17.1223ZM74.1298 30.0574H71.1299V13.2836H74.1298V30.0574ZM72.6137 10.2515C72.0761 10.2515 71.6138 10.0794 71.2267 9.73535C70.8611 9.36977 70.6783 8.88591 70.6783 8.28378C70.6783 7.68164 70.8611 7.20854 71.2267 6.86446C71.6138 6.49888 72.0761 6.31609 72.6137 6.31609C73.1513 6.31609 73.6029 6.49888 73.9685 6.86446C74.3556 7.20854 74.5492 7.68164 74.5492 8.28378C74.5492 8.88591 74.3556 9.36977 73.9685 9.73535C73.6029 10.0794 73.1513 10.2515 72.6137 10.2515ZM82.0951 13.2836H88.4498V15.7997H82.0951V23.5414C82.0951 24.3801 82.1596 25.079 82.2886 25.6382C82.4177 26.1758 82.6112 26.6059 82.8693 26.9285C83.1273 27.2295 83.4499 27.4446 83.837 27.5736C84.2241 27.7026 84.6757 27.7671 85.1918 27.7671C86.095 27.7671 86.8154 27.6704 87.353 27.4768C87.9121 27.2618 88.2992 27.1112 88.5143 27.0252L89.0949 29.509C88.7938 29.6596 88.267 29.8424 87.5143 30.0574C86.7616 30.294 85.9014 30.4122 84.9337 30.4122C83.794 30.4122 82.8478 30.2725 82.0951 29.9929C81.3639 29.6918 80.7725 29.251 80.3209 28.6703C79.8693 28.0897 79.5468 27.3801 79.3532 26.5414C79.1812 25.6812 79.0952 24.692 79.0952 23.5737V8.60635L82.0951 8.09023V13.2836ZM105.912 27.3478V30.0574H92.4607V7.70315H95.5897V27.3478H105.912ZM114.672 27.8962C115.381 27.8962 116.005 27.8854 116.543 27.8639C117.102 27.8209 117.564 27.7564 117.93 27.6704V22.6705C117.715 22.563 117.36 22.477 116.865 22.4124C116.392 22.3264 115.811 22.2834 115.123 22.2834C114.672 22.2834 114.188 22.3157 113.672 22.3802C113.177 22.4447 112.715 22.5845 112.285 22.7995C111.876 22.9931 111.532 23.2726 111.252 23.6382C110.973 23.9823 110.833 24.4446 110.833 25.0253C110.833 26.1005 111.177 26.8532 111.865 27.2833C112.553 27.6919 113.489 27.8962 114.672 27.8962ZM114.414 12.8643C115.618 12.8643 116.629 13.0256 117.446 13.3482C118.284 13.6492 118.951 14.0901 119.446 14.6707C119.962 15.2298 120.327 15.9072 120.542 16.7029C120.757 17.4771 120.865 18.3373 120.865 19.2835V29.7671C120.607 29.8101 120.241 29.8746 119.768 29.9606C119.317 30.0251 118.801 30.0897 118.22 30.1542C117.639 30.2187 117.005 30.2725 116.317 30.3155C115.65 30.38 114.983 30.4122 114.317 30.4122C113.371 30.4122 112.5 30.3155 111.704 30.1219C110.908 29.9284 110.22 29.6273 109.639 29.2187C109.059 28.7886 108.607 28.2295 108.285 27.5413C107.962 26.8532 107.801 26.0253 107.801 25.0575C107.801 24.1328 107.984 23.3371 108.349 22.6705C108.736 22.0039 109.252 21.4662 109.898 21.0576C110.543 20.649 111.295 20.348 112.156 20.1544C113.016 19.9609 113.919 19.8641 114.865 19.8641C115.166 19.8641 115.478 19.8856 115.801 19.9286C116.123 19.9501 116.424 19.9932 116.704 20.0577C117.005 20.1007 117.263 20.1437 117.478 20.1867C117.693 20.2297 117.844 20.262 117.93 20.2835V19.4448C117.93 18.9502 117.876 18.4663 117.768 17.9932C117.661 17.4986 117.467 17.0685 117.188 16.7029C116.908 16.3158 116.521 16.0148 116.026 15.7997C115.553 15.5632 114.93 15.4449 114.155 15.4449C113.166 15.4449 112.295 15.5201 111.543 15.6707C110.811 15.7997 110.263 15.9395 109.898 16.09L109.543 13.6062C109.93 13.4342 110.575 13.2729 111.478 13.1224C112.381 12.9503 113.36 12.8643 114.414 12.8643ZM128.847 14.0256C129.213 13.789 129.761 13.5417 130.493 13.2836C131.245 13.0256 132.105 12.8966 133.073 12.8966C134.277 12.8966 135.342 13.1116 136.267 13.5417C137.213 13.9718 138.008 14.5739 138.654 15.3481C139.299 16.1223 139.783 17.047 140.105 18.1222C140.449 19.1975 140.621 20.3802 140.621 21.6705C140.621 23.0253 140.417 24.2511 140.008 25.3478C139.621 26.4231 139.062 27.337 138.331 28.0897C137.6 28.8424 136.718 29.423 135.686 29.8316C134.654 30.2402 133.492 30.4445 132.202 30.4445C130.804 30.4445 129.568 30.3477 128.493 30.1542C127.417 29.9606 126.536 29.7671 125.847 29.5735V5.54191L128.847 5.0258V14.0256ZM128.847 27.4446C129.148 27.5306 129.568 27.6166 130.105 27.7026C130.665 27.7671 131.353 27.7994 132.17 27.7994C133.783 27.7994 135.073 27.2725 136.041 26.2188C137.008 25.1436 137.492 23.6275 137.492 21.6705C137.492 20.8103 137.406 20.0039 137.234 19.2512C137.062 18.4986 136.783 17.8534 136.396 17.3158C136.008 16.7567 135.503 16.3266 134.879 16.0255C134.277 15.7029 133.546 15.5417 132.686 15.5417C131.869 15.5417 131.116 15.6814 130.428 15.961C129.74 16.2406 129.213 16.5309 128.847 16.8319V27.4446ZM148.746 27.8962C149.972 27.8962 150.875 27.7349 151.455 27.4123C152.058 27.0897 152.359 26.5736 152.359 25.864C152.359 25.1328 152.068 24.5522 151.488 24.1221C150.907 23.692 149.95 23.2081 148.617 22.6705C147.972 22.4124 147.348 22.1544 146.746 21.8963C146.165 21.6168 145.66 21.2942 145.23 20.9286C144.8 20.563 144.456 20.1222 144.198 19.6061C143.939 19.0899 143.81 18.4556 143.81 17.7029C143.81 16.2191 144.359 15.047 145.456 14.1869C146.552 13.3052 148.047 12.8643 149.939 12.8643C150.412 12.8643 150.886 12.8966 151.359 12.9611C151.832 13.0041 152.273 13.0686 152.681 13.1546C153.09 13.2191 153.445 13.2944 153.746 13.3804C154.068 13.4664 154.316 13.5417 154.488 13.6062L153.939 16.1868C153.617 16.0148 153.111 15.8427 152.423 15.6707C151.735 15.4771 150.907 15.3804 149.939 15.3804C149.101 15.3804 148.369 15.5524 147.746 15.8965C147.122 16.2191 146.81 16.7352 146.81 17.4448C146.81 17.8104 146.875 18.133 147.004 18.4125C147.154 18.6921 147.37 18.9502 147.649 19.1867C147.95 19.4018 148.316 19.6061 148.746 19.7996C149.176 19.9932 149.692 20.1974 150.294 20.4125C151.09 20.7136 151.799 21.0146 152.423 21.3157C153.047 21.5953 153.574 21.9286 154.004 22.3157C154.455 22.7028 154.799 23.1759 155.036 23.735C155.273 24.2726 155.391 24.9393 155.391 25.7349C155.391 27.2833 154.81 28.4553 153.649 29.251C152.509 30.0467 150.875 30.4445 148.746 30.4445C147.262 30.4445 146.101 30.3155 145.262 30.0574C144.423 29.8209 143.853 29.6381 143.552 29.509L144.101 26.9285C144.445 27.0575 144.993 27.251 145.746 27.5091C146.499 27.7671 147.499 27.8962 148.746 27.8962Z" fill="#01244C"/>
<path d="M50.3862 43.2533C50.9424 43.2533 51.3751 43.1538 51.6841 42.9546C51.9931 42.7486 52.1476 42.419 52.1476 41.9658C52.1476 41.7049 52.0961 41.4886 51.9931 41.3169C51.8969 41.1384 51.7665 40.9908 51.6017 40.874C51.4369 40.7504 51.248 40.6474 51.0352 40.565C50.8223 40.4758 50.5991 40.3831 50.3656 40.2869C50.0704 40.1702 49.806 40.05 49.5725 39.9264C49.3391 39.8028 49.1399 39.6655 48.9751 39.5144C48.8103 39.3565 48.6833 39.1779 48.594 38.9788C48.5116 38.7797 48.4704 38.5462 48.4704 38.2784C48.4704 37.6673 48.673 37.2038 49.0781 36.8879C49.4833 36.572 50.0463 36.4141 50.7673 36.4141C50.9596 36.4141 51.1485 36.4278 51.3339 36.4553C51.5193 36.4828 51.6909 36.5205 51.8489 36.5686C52.0137 36.6098 52.1613 36.6579 52.2918 36.7128C52.4291 36.7677 52.5424 36.8261 52.6317 36.8879L52.3845 37.475C52.1853 37.3377 51.9416 37.2278 51.6532 37.1454C51.3716 37.063 51.0661 37.0218 50.7364 37.0218C50.5098 37.0218 50.3004 37.0458 50.1081 37.0939C49.9227 37.1351 49.7614 37.2072 49.624 37.3102C49.4867 37.4063 49.3768 37.5299 49.2944 37.681C49.2189 37.8321 49.1811 38.014 49.1811 38.2269C49.1811 38.4466 49.2223 38.632 49.3047 38.7831C49.3871 38.9342 49.5004 39.0646 49.6446 39.1745C49.7957 39.2844 49.9708 39.3839 50.1699 39.4732C50.3691 39.5625 50.5854 39.6552 50.8188 39.7513C51.1004 39.8681 51.3648 39.9848 51.612 40.1015C51.866 40.2183 52.0858 40.3556 52.2712 40.5135C52.4566 40.6715 52.6042 40.8637 52.7141 41.0903C52.8239 41.3169 52.8789 41.595 52.8789 41.9246C52.8789 42.5701 52.6523 43.0542 52.1991 43.3769C51.7527 43.6997 51.145 43.861 50.3759 43.861C50.1013 43.861 49.8506 43.8439 49.624 43.8095C49.3974 43.7752 49.1949 43.734 49.0163 43.6859C48.8378 43.631 48.6867 43.5761 48.5631 43.5211C48.4395 43.4662 48.3434 43.4181 48.2747 43.3769L48.5013 42.7692C48.57 42.8104 48.6627 42.8585 48.7794 42.9134C48.8962 42.9684 49.0335 43.0233 49.1914 43.0782C49.3494 43.1263 49.5279 43.1675 49.727 43.2018C49.9262 43.2362 50.1459 43.2533 50.3862 43.2533ZM59.9097 41.0491C59.9097 41.468 59.8479 41.8491 59.7243 42.1924C59.6076 42.5358 59.4393 42.8276 59.2196 43.0679C59.0067 43.3083 58.7527 43.4971 58.4574 43.6344C58.1621 43.7649 57.836 43.8301 57.4789 43.8301C57.1218 43.8301 56.7957 43.7649 56.5004 43.6344C56.2051 43.4971 55.9476 43.3083 55.7279 43.0679C55.515 42.8276 55.3468 42.5358 55.2232 42.1924C55.1064 41.8491 55.0481 41.468 55.0481 41.0491C55.0481 40.6303 55.1064 40.2492 55.2232 39.9058C55.3468 39.5625 55.515 39.2706 55.7279 39.0303C55.9476 38.7831 56.2051 38.5943 56.5004 38.4638C56.7957 38.3265 57.1218 38.2578 57.4789 38.2578C57.836 38.2578 58.1621 38.3265 58.4574 38.4638C58.7527 38.5943 59.0067 38.7831 59.2196 39.0303C59.4393 39.2706 59.6076 39.5625 59.7243 39.9058C59.8479 40.2492 59.9097 40.6303 59.9097 41.0491ZM59.199 41.0491C59.199 40.3831 59.0445 39.8543 58.7355 39.4629C58.4265 39.0646 58.0076 38.8655 57.4789 38.8655C56.9502 38.8655 56.5313 39.0646 56.2223 39.4629C55.9133 39.8543 55.7588 40.3831 55.7588 41.0491C55.7588 41.7152 55.9133 42.2439 56.2223 42.6353C56.5313 43.0267 56.9502 43.2224 57.4789 43.2224C58.0076 43.2224 58.4265 43.0267 58.7355 42.6353C59.0445 42.2439 59.199 41.7152 59.199 41.0491ZM64.5554 35.7137C64.8438 35.7137 65.0772 35.7377 65.2558 35.7858C65.4412 35.827 65.5613 35.8648 65.6163 35.8991L65.4824 36.4759C65.4068 36.4416 65.2935 36.4072 65.1425 36.3729C64.9983 36.3317 64.8129 36.3111 64.5863 36.3111C64.1125 36.3111 63.7726 36.4313 63.5665 36.6716C63.3674 36.9119 63.2678 37.2965 63.2678 37.8252V38.3814H65.4103V38.9479H63.2678V43.7065H62.5983V37.8046C62.5983 37.1111 62.7563 36.5892 63.0721 36.239C63.3949 35.8888 63.8893 35.7137 64.5554 35.7137ZM68.3352 38.3814H70.4571V38.9479H68.3352V41.7804C68.3352 42.0826 68.3593 42.3298 68.4073 42.522C68.4623 42.7074 68.5378 42.8516 68.6339 42.9546C68.7301 43.0576 68.8468 43.1263 68.9841 43.1606C69.1215 43.195 69.2725 43.2121 69.4373 43.2121C69.7189 43.2121 69.9455 43.1812 70.1172 43.1194C70.2888 43.0508 70.4227 42.989 70.5189 42.934L70.6837 43.4902C70.5875 43.552 70.4193 43.6241 70.179 43.7065C69.9386 43.7821 69.6777 43.8198 69.3961 43.8198C69.0665 43.8198 68.7884 43.7786 68.5618 43.6962C68.3421 43.607 68.1636 43.4765 68.0262 43.3048C67.8958 43.1263 67.8031 42.9066 67.7481 42.6456C67.6932 42.3847 67.6657 42.0757 67.6657 41.7186V36.8158L68.3352 36.6922V38.3814ZM76.3561 38.3814C76.4179 38.7247 76.4969 39.0921 76.593 39.4835C76.696 39.8681 76.8059 40.2629 76.9226 40.668C77.0462 41.0663 77.1732 41.4611 77.3037 41.8525C77.441 42.2439 77.5784 42.6113 77.7157 42.9546C77.8324 42.6937 77.956 42.3778 78.0865 42.007C78.217 41.6294 78.3474 41.2345 78.4779 40.8225C78.6084 40.4037 78.7285 39.9848 78.8384 39.5659C78.9551 39.1402 79.0513 38.7453 79.1268 38.3814H79.786C79.5388 39.4251 79.2676 40.3796 78.9723 41.2448C78.6839 42.11 78.3646 42.9306 78.0144 43.7065H77.3861C77.2831 43.4662 77.1732 43.1984 77.0565 42.9031C76.9466 42.601 76.8299 42.2817 76.7063 41.9452C76.5896 41.6019 76.4728 41.2448 76.3561 40.874C76.2462 40.4964 76.1398 40.1118 76.0368 39.7204C75.9338 40.1118 75.8239 40.4964 75.7072 40.874C75.5973 41.2448 75.4806 41.6019 75.357 41.9452C75.2403 42.2817 75.1235 42.601 75.0068 42.9031C74.8969 43.1984 74.7905 43.4662 74.6875 43.7065H74.0489C73.6987 42.9306 73.3759 42.11 73.0807 41.2448C72.7923 40.3796 72.5245 39.4251 72.2773 38.3814H72.988C73.0635 38.7453 73.1562 39.1402 73.2661 39.5659C73.3828 39.9848 73.5064 40.4037 73.6369 40.8225C73.7673 41.2345 73.8978 41.6259 74.0283 41.9967C74.1656 42.3675 74.2926 42.6834 74.4094 42.9443C74.5399 42.601 74.6703 42.2336 74.8008 41.8422C74.9381 41.4508 75.0652 41.056 75.1819 40.6577C75.2986 40.2595 75.4085 39.8681 75.5115 39.4835C75.6145 39.0921 75.7038 38.7247 75.7793 38.3814H76.3561ZM83.8277 43.2224C84.0886 43.2224 84.3152 43.2156 84.5075 43.2018C84.7066 43.1812 84.8748 43.1572 85.0122 43.1297V41.2551C84.9366 41.2208 84.8165 41.1865 84.6517 41.1521C84.4869 41.1109 84.2603 41.0903 83.9719 41.0903C83.8071 41.0903 83.6354 41.1041 83.4569 41.1315C83.2783 41.1521 83.1135 41.2036 82.9625 41.286C82.8114 41.3616 82.6878 41.468 82.5917 41.6053C82.4955 41.7427 82.4475 41.9246 82.4475 42.1512C82.4475 42.3504 82.4784 42.5186 82.5402 42.6559C82.6088 42.7933 82.7015 42.9031 82.8183 42.9855C82.9419 43.0679 83.0861 43.1297 83.2509 43.1709C83.4225 43.2053 83.6148 43.2224 83.8277 43.2224ZM83.7659 38.2578C84.1161 38.2578 84.4113 38.3093 84.6517 38.4123C84.8989 38.5084 85.098 38.6458 85.2491 38.8243C85.4001 38.996 85.51 39.202 85.5787 39.4423C85.6473 39.6826 85.6817 39.9436 85.6817 40.2251V43.5829C85.613 43.6035 85.5134 43.6276 85.383 43.655C85.2525 43.6756 85.1014 43.6997 84.9298 43.7271C84.7581 43.7546 84.5658 43.7752 84.353 43.7889C84.147 43.8095 83.9341 43.8198 83.7144 43.8198C83.4328 43.8198 83.1719 43.7889 82.9316 43.7271C82.6981 43.6653 82.4921 43.5692 82.3136 43.4387C82.1419 43.3014 82.0046 43.1297 81.9016 42.9237C81.8054 42.7109 81.7574 42.4534 81.7574 42.1512C81.7574 41.8628 81.8123 41.6156 81.9222 41.4096C82.032 41.2036 82.1865 41.0354 82.3857 40.9049C82.5848 40.7676 82.8217 40.668 83.0964 40.6062C83.371 40.5444 83.6697 40.5135 83.9925 40.5135C84.0886 40.5135 84.1882 40.5204 84.2912 40.5341C84.401 40.541 84.504 40.5547 84.6002 40.5753C84.7032 40.5891 84.789 40.6062 84.8577 40.6268C84.9332 40.6406 84.9847 40.6543 85.0122 40.668V40.3384C85.0122 40.153 84.9984 39.9745 84.971 39.8028C84.9435 39.6243 84.8817 39.4663 84.7856 39.329C84.6963 39.1848 84.5658 39.0715 84.3942 38.9891C84.2294 38.8998 84.0096 38.8552 83.735 38.8552C83.3436 38.8552 83.0517 38.8827 82.8595 38.9376C82.6672 38.9925 82.5264 39.0372 82.4372 39.0715L82.3445 38.4844C82.4612 38.4295 82.6397 38.378 82.8801 38.3299C83.1273 38.2818 83.4225 38.2578 83.7659 38.2578ZM90.4381 38.2784C90.6579 38.2784 90.8639 38.2956 91.0561 38.3299C91.2553 38.3642 91.3926 38.3986 91.4681 38.4329L91.3342 39.0097C91.2793 38.9822 91.166 38.9548 90.9943 38.9273C90.8295 38.893 90.6098 38.8758 90.3351 38.8758C90.0467 38.8758 89.8133 38.8964 89.6347 38.9376C89.4631 38.9788 89.3498 39.0131 89.2948 39.0406V43.7065H88.6253V38.6286C88.797 38.5531 89.0339 38.4775 89.336 38.402C89.6382 38.3196 90.0055 38.2784 90.4381 38.2784ZM93.3945 41.0388C93.3945 40.5719 93.4597 40.1668 93.5902 39.8234C93.7275 39.4732 93.9026 39.1814 94.1155 38.9479C94.3352 38.7144 94.5824 38.5428 94.8571 38.4329C95.1386 38.3162 95.427 38.2578 95.7223 38.2578C96.3747 38.2578 96.8931 38.4707 97.2776 38.8964C97.669 39.3221 97.8647 39.9779 97.8647 40.8637C97.8647 40.9187 97.8613 40.9736 97.8544 41.0285C97.8544 41.0835 97.851 41.135 97.8441 41.183H94.1052C94.1258 41.8354 94.2872 42.3366 94.5893 42.6868C94.8914 43.037 95.3721 43.2121 96.0313 43.2121C96.3953 43.2121 96.6837 43.1778 96.8965 43.1091C97.1094 43.0405 97.2639 42.9821 97.36 42.934L97.4836 43.5108C97.3875 43.5658 97.2055 43.631 96.9377 43.7065C96.6768 43.7821 96.3678 43.8198 96.0107 43.8198C95.5438 43.8198 95.1455 43.7512 94.8159 43.6138C94.4863 43.4765 94.2151 43.2842 94.0022 43.037C93.7893 42.7898 93.6348 42.498 93.5387 42.1615C93.4426 41.8182 93.3945 41.444 93.3945 41.0388ZM97.1746 40.6165C97.1609 40.0603 97.0304 39.6277 96.7832 39.3187C96.536 39.0097 96.1858 38.8552 95.7326 38.8552C95.4923 38.8552 95.276 38.9033 95.0837 38.9994C94.8983 39.0955 94.7335 39.226 94.5893 39.3908C94.452 39.5487 94.3421 39.7342 94.2597 39.947C94.1842 40.1599 94.1395 40.3831 94.1258 40.6165H97.1746ZM105.264 43.2327C105.649 43.2327 105.965 43.1709 106.212 43.0473C106.466 42.9169 106.593 42.7006 106.593 42.3984C106.593 42.2542 106.569 42.1306 106.521 42.0276C106.48 41.9246 106.408 41.8319 106.305 41.7495C106.202 41.6671 106.064 41.5882 105.893 41.5126C105.728 41.4371 105.522 41.3478 105.274 41.2448C105.075 41.1624 104.887 41.08 104.708 40.9976C104.529 40.9084 104.372 40.8088 104.234 40.6989C104.097 40.5822 103.987 40.4449 103.905 40.2869C103.822 40.129 103.781 39.9367 103.781 39.7101C103.781 39.2775 103.942 38.9273 104.265 38.6595C104.595 38.3917 105.044 38.2578 105.614 38.2578C105.978 38.2578 106.277 38.2887 106.511 38.3505C106.751 38.4123 106.919 38.4672 107.015 38.5153L106.861 39.1127C106.778 39.0715 106.638 39.0166 106.438 38.9479C106.246 38.8792 105.961 38.8449 105.583 38.8449C105.432 38.8449 105.288 38.8621 105.151 38.8964C105.02 38.9239 104.904 38.9719 104.801 39.0406C104.698 39.1024 104.615 39.1848 104.553 39.2878C104.492 39.3839 104.461 39.5041 104.461 39.6483C104.461 39.7925 104.488 39.9161 104.543 40.0191C104.598 40.1221 104.677 40.2148 104.78 40.2972C104.89 40.3728 105.02 40.4449 105.171 40.5135C105.329 40.5822 105.508 40.6577 105.707 40.7401C105.913 40.8225 106.109 40.9084 106.294 40.9976C106.486 41.08 106.655 41.183 106.799 41.3066C106.943 41.4234 107.06 41.5676 107.149 41.7392C107.238 41.904 107.283 42.1135 107.283 42.3675C107.283 42.8482 107.101 43.2121 106.737 43.4593C106.38 43.7065 105.889 43.8301 105.264 43.8301C104.797 43.8301 104.44 43.7889 104.193 43.7065C103.946 43.631 103.781 43.5726 103.699 43.5314L103.874 42.9237C103.894 42.9375 103.939 42.9615 104.008 42.9958C104.076 43.0233 104.169 43.0576 104.286 43.0988C104.402 43.1332 104.54 43.1641 104.698 43.1915C104.862 43.219 105.051 43.2327 105.264 43.2327ZM114.356 41.0491C114.356 41.468 114.295 41.8491 114.171 42.1924C114.054 42.5358 113.886 42.8276 113.666 43.0679C113.453 43.3083 113.199 43.4971 112.904 43.6344C112.609 43.7649 112.283 43.8301 111.926 43.8301C111.569 43.8301 111.242 43.7649 110.947 43.6344C110.652 43.4971 110.394 43.3083 110.175 43.0679C109.962 42.8276 109.793 42.5358 109.67 42.1924C109.553 41.8491 109.495 41.468 109.495 41.0491C109.495 40.6303 109.553 40.2492 109.67 39.9058C109.793 39.5625 109.962 39.2706 110.175 39.0303C110.394 38.7831 110.652 38.5943 110.947 38.4638C111.242 38.3265 111.569 38.2578 111.926 38.2578C112.283 38.2578 112.609 38.3265 112.904 38.4638C113.199 38.5943 113.453 38.7831 113.666 39.0303C113.886 39.2706 114.054 39.5625 114.171 39.9058C114.295 40.2492 114.356 40.6303 114.356 41.0491ZM113.646 41.0491C113.646 40.3831 113.491 39.8543 113.182 39.4629C112.873 39.0646 112.454 38.8655 111.926 38.8655C111.397 38.8655 110.978 39.0646 110.669 39.4629C110.36 39.8543 110.205 40.3831 110.205 41.0491C110.205 41.7152 110.36 42.2439 110.669 42.6353C110.978 43.0267 111.397 43.2224 111.926 43.2224C112.454 43.2224 112.873 43.0267 113.182 42.6353C113.491 42.2439 113.646 41.7152 113.646 41.0491ZM118.394 43.7992C118.168 43.7924 117.969 43.7615 117.797 43.7065C117.632 43.6585 117.491 43.5829 117.375 43.4799C117.265 43.3701 117.179 43.2327 117.117 43.0679C117.062 42.8963 117.035 42.6834 117.035 42.4293V35.8373L117.704 35.7137V42.4087C117.704 42.5735 117.718 42.7074 117.745 42.8104C117.78 42.9066 117.828 42.9855 117.89 43.0473C117.951 43.1023 118.03 43.1435 118.127 43.1709C118.23 43.1984 118.35 43.2224 118.487 43.243L118.394 43.7992ZM124.996 43.5211C124.796 43.5761 124.529 43.6379 124.192 43.7065C123.856 43.7752 123.444 43.8095 122.956 43.8095C122.558 43.8095 122.225 43.7512 121.957 43.6344C121.689 43.5177 121.473 43.3529 121.308 43.14C121.143 42.9272 121.023 42.6697 120.948 42.3675C120.879 42.0654 120.845 41.7324 120.845 41.3684V38.3814H121.514V41.1521C121.514 41.5298 121.542 41.8491 121.596 42.11C121.651 42.371 121.741 42.5838 121.864 42.7486C121.988 42.9066 122.146 43.0233 122.338 43.0988C122.537 43.1675 122.778 43.2018 123.059 43.2018C123.375 43.2018 123.65 43.1847 123.883 43.1503C124.117 43.116 124.264 43.0851 124.326 43.0576V38.3814H124.996V43.5211ZM128.635 38.3814H130.757V38.9479H128.635V41.7804C128.635 42.0826 128.659 42.3298 128.707 42.522C128.762 42.7074 128.837 42.8516 128.934 42.9546C129.03 43.0576 129.146 43.1263 129.284 43.1606C129.421 43.195 129.572 43.2121 129.737 43.2121C130.019 43.2121 130.245 43.1812 130.417 43.1194C130.588 43.0508 130.722 42.989 130.819 42.934L130.983 43.4902C130.887 43.552 130.719 43.6241 130.479 43.7065C130.238 43.7821 129.977 43.8198 129.696 43.8198C129.366 43.8198 129.088 43.7786 128.861 43.6962C128.642 43.607 128.463 43.4765 128.326 43.3048C128.195 43.1263 128.103 42.9066 128.048 42.6456C127.993 42.3847 127.965 42.0757 127.965 41.7186V36.8158L128.635 36.6922V38.3814ZM133.895 43.7065H133.226V38.3814H133.895V43.7065ZM134.05 36.7746C134.05 36.9325 134.002 37.0596 133.906 37.1557C133.809 37.245 133.693 37.2896 133.555 37.2896C133.418 37.2896 133.301 37.245 133.205 37.1557C133.109 37.0596 133.061 36.9325 133.061 36.7746C133.061 36.6167 133.109 36.4931 133.205 36.4038C133.301 36.3077 133.418 36.2596 133.555 36.2596C133.693 36.2596 133.809 36.3077 133.906 36.4038C134.002 36.4931 134.05 36.6167 134.05 36.7746ZM141.448 41.0491C141.448 41.468 141.387 41.8491 141.263 42.1924C141.146 42.5358 140.978 42.8276 140.758 43.0679C140.545 43.3083 140.291 43.4971 139.996 43.6344C139.701 43.7649 139.375 43.8301 139.018 43.8301C138.661 43.8301 138.334 43.7649 138.039 43.6344C137.744 43.4971 137.486 43.3083 137.267 43.0679C137.054 42.8276 136.885 42.5358 136.762 42.1924C136.645 41.8491 136.587 41.468 136.587 41.0491C136.587 40.6303 136.645 40.2492 136.762 39.9058C136.885 39.5625 137.054 39.2706 137.267 39.0303C137.486 38.7831 137.744 38.5943 138.039 38.4638C138.334 38.3265 138.661 38.2578 139.018 38.2578C139.375 38.2578 139.701 38.3265 139.996 38.4638C140.291 38.5943 140.545 38.7831 140.758 39.0303C140.978 39.2706 141.146 39.5625 141.263 39.9058C141.387 40.2492 141.448 40.6303 141.448 41.0491ZM140.738 41.0491C140.738 40.3831 140.583 39.8543 140.274 39.4629C139.965 39.0646 139.546 38.8655 139.018 38.8655C138.489 38.8655 138.07 39.0646 137.761 39.4629C137.452 39.8543 137.297 40.3831 137.297 41.0491C137.297 41.7152 137.452 42.2439 137.761 42.6353C138.07 43.0267 138.489 43.2224 139.018 43.2224C139.546 43.2224 139.965 43.0267 140.274 42.6353C140.583 42.2439 140.738 41.7152 140.738 41.0491ZM144.137 38.5668C144.336 38.5119 144.604 38.4501 144.94 38.3814C145.277 38.3127 145.689 38.2784 146.176 38.2784C146.582 38.2784 146.918 38.3368 147.186 38.4535C147.461 38.5702 147.677 38.7385 147.835 38.9582C148 39.1711 148.116 39.4286 148.185 39.7307C148.254 40.0329 148.288 40.3659 148.288 40.7298V43.7065H147.618V40.9461C147.618 40.5685 147.591 40.2492 147.536 39.9882C147.488 39.7273 147.402 39.5144 147.279 39.3496C147.162 39.1848 147.004 39.0681 146.805 38.9994C146.612 38.9239 146.369 38.8861 146.073 38.8861C145.758 38.8861 145.483 38.9033 145.249 38.9376C145.023 38.9719 144.875 39.0028 144.807 39.0303V43.7065H144.137V38.5668ZM152.329 43.2327C152.714 43.2327 153.029 43.1709 153.277 43.0473C153.531 42.9169 153.658 42.7006 153.658 42.3984C153.658 42.2542 153.634 42.1306 153.586 42.0276C153.544 41.9246 153.472 41.8319 153.369 41.7495C153.266 41.6671 153.129 41.5882 152.957 41.5126C152.793 41.4371 152.587 41.3478 152.339 41.2448C152.14 41.1624 151.951 41.08 151.773 40.9976C151.594 40.9084 151.436 40.8088 151.299 40.6989C151.162 40.5822 151.052 40.4449 150.969 40.2869C150.887 40.129 150.846 39.9367 150.846 39.7101C150.846 39.2775 151.007 38.9273 151.33 38.6595C151.66 38.3917 152.109 38.2578 152.679 38.2578C153.043 38.2578 153.342 38.2887 153.575 38.3505C153.816 38.4123 153.984 38.4672 154.08 38.5153L153.926 39.1127C153.843 39.0715 153.702 39.0166 153.503 38.9479C153.311 38.8792 153.026 38.8449 152.648 38.8449C152.497 38.8449 152.353 38.8621 152.216 38.8964C152.085 38.9239 151.969 38.9719 151.866 39.0406C151.763 39.1024 151.68 39.1848 151.618 39.2878C151.557 39.3839 151.526 39.5041 151.526 39.6483C151.526 39.7925 151.553 39.9161 151.608 40.0191C151.663 40.1221 151.742 40.2148 151.845 40.2972C151.955 40.3728 152.085 40.4449 152.236 40.5135C152.394 40.5822 152.573 40.6577 152.772 40.7401C152.978 40.8225 153.174 40.9084 153.359 40.9976C153.551 41.08 153.72 41.183 153.864 41.3066C154.008 41.4234 154.125 41.5676 154.214 41.7392C154.303 41.904 154.348 42.1135 154.348 42.3675C154.348 42.8482 154.166 43.2121 153.802 43.4593C153.445 43.7065 152.954 43.8301 152.329 43.8301C151.862 43.8301 151.505 43.7889 151.258 43.7065C151.011 43.631 150.846 43.5726 150.763 43.5314L150.939 42.9237C150.959 42.9375 151.004 42.9615 151.072 42.9958C151.141 43.0233 151.234 43.0576 151.351 43.0988C151.467 43.1332 151.605 43.1641 151.763 43.1915C151.927 43.219 152.116 43.2327 152.329 43.2327Z" fill="#01244C"/>
</svg>
