<svg xmlns="http://www.w3.org/2000/svg" width="55" height="54" fill="none" xmlns:v="https://vecta.io/nano"><path d="M9.086 35.865a12.32 12.32 0 0 1 0-17.73l9.086-8.865c5.018-4.896 13.154-4.896 18.172 0l9.086 8.865a12.32 12.32 0 0 1 0 17.73l-9.086 8.865c-5.018 4.896-13.154 4.896-18.172 0l-9.086-8.865z" fill="#fecfd0"/><path d="M30.004 32.075l-3.529-3.558c-.194.078-.391.136-.59.175s-.411.058-.635.058c-.972 0-1.799-.34-2.479-1.021s-1.021-1.507-1.021-2.479a3.38 3.38 0 0 1 .146-.999c.097-.316.233-.615.408-.897l2.129 2.129 1.05-1.05-2.129-2.129c.282-.175.581-.311.897-.408a3.38 3.38 0 0 1 .999-.146c.972 0 1.799.34 2.479 1.021s1.021 1.507 1.021 2.479c0 .224-.019.435-.058.634s-.097.396-.175.591l3.558 3.529c.117.117.175.258.175.423s-.058.306-.175.423l-1.225 1.225c-.117.117-.258.175-.423.175s-.306-.058-.423-.175zm.423-1.24l.394-.394-3.733-3.733a1.76 1.76 0 0 0 .379-.678c.078-.257.117-.517.117-.78 0-.583-.187-1.091-.561-1.524s-.839-.692-1.393-.78l1.079 1.079a.56.56 0 0 1 .175.408.56.56 0 0 1-.175.408l-1.867 1.867a.56.56 0 0 1-.408.175.56.56 0 0 1-.408-.175l-1.079-1.079c.088.554.348 1.018.781 1.392s.94.562 1.524.562a2.57 2.57 0 0 0 .758-.117c.253-.078.481-.199.685-.365l3.733 3.733z" fill="#01244c"/></svg>