<svg width="96" height="96" viewBox="0 0 96 96" fill="none" xmlns="http://www.w3.org/2000/svg">
<path d="M48.6812 14.2078C49.5388 14.2078 50.2365 13.5192 50.2365 12.6719V1.53597C50.2365 0.688698 49.5388 3.78748e-05 48.6812 3.78748e-05C47.8219 3.78748e-05 47.1242 0.688698 47.1242 1.53597V12.6719C47.1242 13.5192 47.8219 14.2078 48.6812 14.2078Z" fill="#E78200"/>
<path d="M22.5184 23.4473C22.8123 23.7374 23.2032 23.8973 23.6188 23.8973C24.0343 23.8973 24.4251 23.7374 24.7191 23.4473C25.3258 22.8485 25.3258 21.8737 24.7191 21.2748L16.741 13.4005C16.1342 12.8024 15.147 12.8024 14.5403 13.4005C13.9337 13.9994 13.9337 14.9741 14.5403 15.573L22.5184 23.4473" fill="#E78200"/>
<path d="M14.3949 46.7039C14.3949 45.8571 13.6968 45.1677 12.8388 45.1677H1.5561C0.698096 45.1677 0 45.8571 0 46.7039C0 47.5508 0.698096 48.2401 1.5561 48.2401H12.8388C13.6968 48.2401 14.3949 47.5508 14.3949 46.7039Z" fill="#E78200"/>
<path d="M21.5555 70.3542L13.5774 78.2286C12.9708 78.8275 12.9708 79.8022 13.5775 80.4011C13.8714 80.6912 14.2622 80.8503 14.6777 80.8503C15.0933 80.8503 15.484 80.6912 15.7781 80.4011L23.7562 72.5267C24.3628 71.9279 24.3628 70.9531 23.7561 70.3542C23.1494 69.7554 22.1623 69.7554 21.5555 70.3542" fill="#E78200"/>
<path d="M73.4811 71.3049C72.8751 70.706 71.8875 70.706 71.2808 71.3049C70.674 71.9037 70.674 72.8777 71.2808 73.4766L79.2588 81.3509C79.5527 81.641 79.9438 81.8009 80.3593 81.8009C80.7749 81.8009 81.1652 81.641 81.4599 81.3509C82.0659 80.752 82.0659 79.7781 81.4599 79.1792L73.4811 71.3049" fill="#E78200"/>
<path d="M94.4442 46.5119H83.1614C82.3035 46.5119 81.6048 47.2008 81.6048 48.0475C81.6048 48.8943 82.3035 49.5831 83.1614 49.5831H94.4442C95.3021 49.5831 96 48.8943 96 48.0475C96 47.2008 95.3021 46.5119 94.4442 46.5119Z" fill="#E78200"/>
<path d="M73.3436 24.8471C73.7592 24.8471 74.1502 24.688 74.4441 24.3979L82.4222 16.5228C83.0289 15.9239 83.0289 14.9499 82.4222 14.3511C81.8154 13.7522 80.8286 13.7522 80.2219 14.3511L72.2438 22.2254C71.6371 22.8243 71.6371 23.799 72.2438 24.3979C72.5377 24.688 72.928 24.8471 73.3436 24.8471Z" fill="#E78200"/>
<path d="M48.7292 29.3761C48.5696 29.3761 44.7837 29.4003 40.8444 31.533C37.1865 33.5137 32.7005 37.7269 32.1007 46.5534C32.0433 47.3979 32.6931 48.1317 33.5486 48.1886C33.5841 48.1909 33.6193 48.1917 33.6545 48.1917C34.4698 48.1917 35.1513 47.5624 35.206 46.7585C35.6093 40.8242 37.9832 36.6219 42.2618 34.2693C45.4845 32.4976 48.7032 32.4477 48.7324 32.4477C49.5888 32.4461 50.2857 31.7576 50.2857 30.9115C50.2857 30.0647 49.5872 29.3761 48.7292 29.3761" fill="#E78200"/>
<path d="M57.1348 86.9763H39.9344C39.689 86.9763 39.4892 86.779 39.4892 86.5365V82.2312C39.4892 81.9895 39.689 81.7922 39.9344 81.7922H57.1348C57.3805 81.7922 57.5804 81.9895 57.5804 82.2312V86.5365C57.5804 86.779 57.3805 86.9763 57.1348 86.9763ZM53.3978 90.0479V90.6561C53.3978 91.9085 52.3652 92.9284 51.0956 92.9284H45.0983C43.8286 92.9284 42.796 91.9085 42.796 90.6561V90.0479H53.3978ZM57.1348 78.7198H39.9344C37.9729 78.7198 36.377 80.295 36.377 82.2312V86.5365C36.377 88.3893 37.8388 89.9122 39.6839 90.0393V90.6561C39.6839 93.6029 42.1126 96 45.0983 96H51.0956C54.0812 96 56.5107 93.6029 56.5107 90.6561V90.0479H57.1348C59.0965 90.0479 60.6925 88.4727 60.6925 86.5365V82.2312C60.6925 80.295 59.0965 78.7198 57.1348 78.7198" fill="#FEDFB1"/>
<path d="M65.285 59.7521C63.0239 62.1406 61.3 64.9151 60.1615 68L57.7842 74.4418C57.7091 74.6461 57.51 74.7842 57.2896 74.7842H39.8686C39.6492 74.7842 39.4507 74.6477 39.3746 74.445L36.7494 67.4588C35.6329 64.4862 34.0073 61.8365 31.9178 59.5829C28.2387 55.6137 26.2126 50.4944 26.2126 45.1676C26.2126 33.2314 36.2917 23.5198 48.6811 23.5198C61.0701 23.5198 71.1488 33.2314 71.1488 45.1676C71.1488 50.5786 69.0662 55.758 65.285 59.7521ZM48.6811 20.4474C34.5756 20.4474 23.1003 31.5369 23.1003 45.1676C23.1003 51.2641 25.4163 57.1195 29.6217 61.6564C31.4388 63.6168 32.855 65.9281 33.8313 68.5263L36.4562 75.5117C36.9819 76.9138 38.3532 77.8558 39.8686 77.8558H57.2896C58.8136 77.8558 60.1876 76.906 60.709 75.493L63.0855 69.0511C64.0802 66.3569 65.5852 63.9341 67.5588 61.8497C71.8804 57.2848 74.2609 51.36 74.2609 45.1676C74.2609 31.5369 62.7861 20.4474 48.6811 20.4474" fill="#FEDFB1"/>
</svg>
